<mxfile host="app.diagrams.net" modified="2023-09-12T15:00:55.739Z" agent="Mozilla/5.0 (Windows NT 10.0; Win64; x64) AppleWebKit/537.36 (KHTML, like Gecko) Chrome/116.0.0.0 Safari/537.36 Edg/116.0.1938.69" etag="eRW55e2CleX9V95NQDNp" version="21.7.4" type="device">
  <diagram id="C5RBs43oDa-KdzZeNtuy" name="Page-1">
    <mxGraphModel dx="872" dy="473" grid="1" gridSize="10" guides="1" tooltips="1" connect="1" arrows="1" fold="1" page="1" pageScale="1" pageWidth="827" pageHeight="1169" math="0" shadow="0">
      <root>
        <mxCell id="WIyWlLk6GJQsqaUBKTNV-0" />
        <mxCell id="WIyWlLk6GJQsqaUBKTNV-1" parent="WIyWlLk6GJQsqaUBKTNV-0" />
        <mxCell id="ctblMG6L8lLWuqJPFnxC-33" style="edgeStyle=orthogonalEdgeStyle;rounded=0;orthogonalLoop=1;jettySize=auto;html=1;exitX=0.5;exitY=1;exitDx=0;exitDy=0;entryX=0.5;entryY=0;entryDx=0;entryDy=0;" edge="1" parent="WIyWlLk6GJQsqaUBKTNV-1" source="ctblMG6L8lLWuqJPFnxC-0" target="ctblMG6L8lLWuqJPFnxC-2">
          <mxGeometry relative="1" as="geometry" />
        </mxCell>
        <mxCell id="ctblMG6L8lLWuqJPFnxC-0" value="" style="ellipse;html=1;shape=startState;fillColor=#000000;strokeColor=#ff0000;" vertex="1" parent="WIyWlLk6GJQsqaUBKTNV-1">
          <mxGeometry x="110" y="30" width="30" height="30" as="geometry" />
        </mxCell>
        <mxCell id="ctblMG6L8lLWuqJPFnxC-7" style="edgeStyle=orthogonalEdgeStyle;rounded=0;orthogonalLoop=1;jettySize=auto;html=1;exitX=0.5;exitY=1;exitDx=0;exitDy=0;entryX=0.625;entryY=0.036;entryDx=0;entryDy=0;entryPerimeter=0;" edge="1" parent="WIyWlLk6GJQsqaUBKTNV-1" source="ctblMG6L8lLWuqJPFnxC-2" target="ctblMG6L8lLWuqJPFnxC-4">
          <mxGeometry relative="1" as="geometry" />
        </mxCell>
        <mxCell id="ctblMG6L8lLWuqJPFnxC-2" value="Escolher opções de devolução no&amp;nbsp; sistema" style="rounded=1;whiteSpace=wrap;html=1;arcSize=40;fillColor=#ffcd28;strokeColor=#d79b00;gradientColor=#ffa500;" vertex="1" parent="WIyWlLk6GJQsqaUBKTNV-1">
          <mxGeometry x="65" y="120" width="120" height="40" as="geometry" />
        </mxCell>
        <mxCell id="ctblMG6L8lLWuqJPFnxC-27" style="edgeStyle=orthogonalEdgeStyle;rounded=0;orthogonalLoop=1;jettySize=auto;html=1;exitX=1;exitY=0.5;exitDx=0;exitDy=0;entryX=0;entryY=0.5;entryDx=0;entryDy=0;" edge="1" parent="WIyWlLk6GJQsqaUBKTNV-1" source="ctblMG6L8lLWuqJPFnxC-4" target="ctblMG6L8lLWuqJPFnxC-21">
          <mxGeometry relative="1" as="geometry">
            <Array as="points">
              <mxPoint x="310" y="240" />
            </Array>
          </mxGeometry>
        </mxCell>
        <mxCell id="ctblMG6L8lLWuqJPFnxC-4" value="inserir ISBN do livro" style="rounded=1;whiteSpace=wrap;html=1;arcSize=40;fillColor=#ffcd28;strokeColor=#d79b00;gradientColor=#ffa500;" vertex="1" parent="WIyWlLk6GJQsqaUBKTNV-1">
          <mxGeometry x="50" y="220" width="120" height="40" as="geometry" />
        </mxCell>
        <mxCell id="ctblMG6L8lLWuqJPFnxC-32" style="edgeStyle=orthogonalEdgeStyle;rounded=0;orthogonalLoop=1;jettySize=auto;html=1;exitX=1;exitY=0.5;exitDx=0;exitDy=0;entryX=0;entryY=0.5;entryDx=0;entryDy=0;" edge="1" parent="WIyWlLk6GJQsqaUBKTNV-1" source="ctblMG6L8lLWuqJPFnxC-12" target="ctblMG6L8lLWuqJPFnxC-15">
          <mxGeometry relative="1" as="geometry" />
        </mxCell>
        <mxCell id="ctblMG6L8lLWuqJPFnxC-34" style="edgeStyle=orthogonalEdgeStyle;rounded=0;orthogonalLoop=1;jettySize=auto;html=1;entryX=1;entryY=0.5;entryDx=0;entryDy=0;" edge="1" parent="WIyWlLk6GJQsqaUBKTNV-1" source="ctblMG6L8lLWuqJPFnxC-12" target="ctblMG6L8lLWuqJPFnxC-2">
          <mxGeometry relative="1" as="geometry" />
        </mxCell>
        <mxCell id="ctblMG6L8lLWuqJPFnxC-12" value="tentarnovamente°" style="rhombus;whiteSpace=wrap;html=1;fillColor=#ffcd28;strokeColor=#d79b00;gradientColor=#ffa500;" vertex="1" parent="WIyWlLk6GJQsqaUBKTNV-1">
          <mxGeometry x="310" y="120" width="80" height="40" as="geometry" />
        </mxCell>
        <mxCell id="ctblMG6L8lLWuqJPFnxC-15" value="" style="ellipse;html=1;shape=startState;fillColor=#000000;strokeColor=#ff0000;" vertex="1" parent="WIyWlLk6GJQsqaUBKTNV-1">
          <mxGeometry x="670" y="120" width="30" height="30" as="geometry" />
        </mxCell>
        <mxCell id="ctblMG6L8lLWuqJPFnxC-31" style="edgeStyle=orthogonalEdgeStyle;rounded=0;orthogonalLoop=1;jettySize=auto;html=1;exitX=0.5;exitY=0;exitDx=0;exitDy=0;entryX=0.5;entryY=1;entryDx=0;entryDy=0;" edge="1" parent="WIyWlLk6GJQsqaUBKTNV-1" source="ctblMG6L8lLWuqJPFnxC-17" target="ctblMG6L8lLWuqJPFnxC-15">
          <mxGeometry relative="1" as="geometry" />
        </mxCell>
        <mxCell id="ctblMG6L8lLWuqJPFnxC-17" value="Gravar historico de devolução" style="rounded=1;whiteSpace=wrap;html=1;arcSize=40;fillColor=#ffcd28;strokeColor=#d79b00;gradientColor=#ffa500;" vertex="1" parent="WIyWlLk6GJQsqaUBKTNV-1">
          <mxGeometry x="625" y="210" width="120" height="40" as="geometry" />
        </mxCell>
        <mxCell id="ctblMG6L8lLWuqJPFnxC-30" style="edgeStyle=orthogonalEdgeStyle;rounded=0;orthogonalLoop=1;jettySize=auto;html=1;exitX=0.5;exitY=0;exitDx=0;exitDy=0;entryX=0.5;entryY=1;entryDx=0;entryDy=0;" edge="1" parent="WIyWlLk6GJQsqaUBKTNV-1" source="ctblMG6L8lLWuqJPFnxC-19" target="ctblMG6L8lLWuqJPFnxC-17">
          <mxGeometry relative="1" as="geometry" />
        </mxCell>
        <mxCell id="ctblMG6L8lLWuqJPFnxC-19" value="Realizar devolução" style="rounded=1;whiteSpace=wrap;html=1;arcSize=40;fillColor=#ffcd28;strokeColor=#d79b00;gradientColor=#ffa500;" vertex="1" parent="WIyWlLk6GJQsqaUBKTNV-1">
          <mxGeometry x="625" y="310" width="120" height="40" as="geometry" />
        </mxCell>
        <mxCell id="ctblMG6L8lLWuqJPFnxC-28" style="edgeStyle=orthogonalEdgeStyle;rounded=0;orthogonalLoop=1;jettySize=auto;html=1;exitX=0.5;exitY=1;exitDx=0;exitDy=0;entryX=1;entryY=0.5;entryDx=0;entryDy=0;" edge="1" parent="WIyWlLk6GJQsqaUBKTNV-1" source="ctblMG6L8lLWuqJPFnxC-21" target="ctblMG6L8lLWuqJPFnxC-24">
          <mxGeometry relative="1" as="geometry" />
        </mxCell>
        <mxCell id="ctblMG6L8lLWuqJPFnxC-29" style="edgeStyle=orthogonalEdgeStyle;rounded=0;orthogonalLoop=1;jettySize=auto;html=1;exitX=1;exitY=0.5;exitDx=0;exitDy=0;entryX=0;entryY=0.5;entryDx=0;entryDy=0;" edge="1" parent="WIyWlLk6GJQsqaUBKTNV-1" source="ctblMG6L8lLWuqJPFnxC-21" target="ctblMG6L8lLWuqJPFnxC-19">
          <mxGeometry relative="1" as="geometry" />
        </mxCell>
        <mxCell id="ctblMG6L8lLWuqJPFnxC-21" value="livro disponivel°" style="rhombus;whiteSpace=wrap;html=1;fillColor=#ffcd28;strokeColor=#d79b00;gradientColor=#ffa500;" vertex="1" parent="WIyWlLk6GJQsqaUBKTNV-1">
          <mxGeometry x="310" y="220" width="80" height="40" as="geometry" />
        </mxCell>
        <mxCell id="ctblMG6L8lLWuqJPFnxC-26" style="edgeStyle=orthogonalEdgeStyle;rounded=0;orthogonalLoop=1;jettySize=auto;html=1;exitX=0;exitY=0.5;exitDx=0;exitDy=0;entryX=0.5;entryY=0;entryDx=0;entryDy=0;" edge="1" parent="WIyWlLk6GJQsqaUBKTNV-1" target="ctblMG6L8lLWuqJPFnxC-12">
          <mxGeometry relative="1" as="geometry">
            <mxPoint x="359" y="80" as="targetPoint" />
            <mxPoint x="189" y="350" as="sourcePoint" />
            <Array as="points">
              <mxPoint x="30" y="350" />
              <mxPoint x="30" y="80" />
              <mxPoint x="350" y="80" />
            </Array>
          </mxGeometry>
        </mxCell>
        <mxCell id="ctblMG6L8lLWuqJPFnxC-24" value="retornar mensagem" style="rounded=1;whiteSpace=wrap;html=1;arcSize=40;fillColor=#ffcd28;strokeColor=#d79b00;gradientColor=#ffa500;" vertex="1" parent="WIyWlLk6GJQsqaUBKTNV-1">
          <mxGeometry x="190" y="330" width="100" height="40" as="geometry" />
        </mxCell>
      </root>
    </mxGraphModel>
  </diagram>
</mxfile>
